<svg width="96" height="102" viewBox="0 0 96 102" fill="none" xmlns="http://www.w3.org/2000/svg">
<path fill-rule="evenodd" clip-rule="evenodd" d="M95.5181 42.4171H85.5107C83.34 42.4171 81.2582 41.5548 79.7233 40.0199L55.8276 16.1242C51.2178 11.5143 43.7438 11.5143 39.134 16.1242L13.9313 41.3269C9.32146 45.9367 9.32145 53.4107 13.9313 58.0205L39.134 83.2233C43.7438 87.8331 51.2178 87.8331 55.8276 83.2233L79.7233 59.3276C81.2582 57.7927 83.34 56.9304 85.5107 56.9304H95.4525C91.863 79.8992 71.9913 97.4725 48.0153 97.4725C21.4972 97.4725 0 75.9753 0 49.4572C0 22.9391 21.4972 1.44189 48.0153 1.44189C72.1418 1.44189 92.1122 19.2364 95.5181 42.4171Z" fill="#324473"/>
<rect x="47.916" y="33.4341" width="21.9526" height="21.9526" rx="2.74407" transform="rotate(45 47.916 33.4341)" fill="#324473"/>
</svg>
