<svg xmlns="http://www.w3.org/2000/svg" width="32" height="32" viewBox="0 0 32 32"><path style="stroke:none;fill-rule:nonzero;fill:none;fill-opacity:1" d="M12.625.063h19.434v32c-2.996 0-6 0-9.024-.024.18-.18.285-.387.277-.652-.003-.29.024-.586-.003-.875-.082-.801-.348-1.336-1.184-1.598-.258-.082-.535-.094-.828-.14.148-.641.344-1.286.43-1.938.066-.516.238-.676.777-.805 2.176-.52 3.777-1.812 4.73-3.863.434-.938.762-1.926.809-2.95.074-1.433.023-2.874.016-4.308 0-.27-.192-.476-.461-.469a8 8 0 0 0-1.063.114c-.93.164-1.664.687-2.332 1.324a.67.67 0 0 1-.426.176c-2.914.011-5.828.008-8.742.008-.09 0-.18-.008-.285-.016v-.36q.001-6.34-.004-12.68c0-.296-.004-.6-.066-.886-.121-.578-.387-1.094-.887-1.426C13.43.45 13.016.27 12.625.063m-.812 32H.066v-32c2.914 0 5.832 0 8.774.023-.735.215-1.235.68-1.5 1.41-.035.098-.13.227-.215.242a23 23 0 0 1-1.621.258c-.758.09-1.504.559-1.457 1.574.027.637.691 1.325 1.308 1.313 1.25-.024 2.5-.008 3.75-.008.086 0 .176.012.27.016v.37c0 4.7-.008 9.395.008 14.094.004.555.05 1.13.199 1.665.465 1.664 1.367 3.046 2.844 3.988.601.387 1.265.676 1.91 1.012-.191.894-.395 1.843-.59 2.761-.328.035-.617.055-.898.094-.594.082-.993.41-1.223.96-.219.517-.09 1.06-.125 1.587-.02.273.102.48.313.64m0 0"/><path style="stroke:none;fill-rule:nonzero;fill:#010101;fill-opacity:1" d="M11.84 32.063c-.238-.16-.36-.368-.34-.641.035-.527-.094-1.07.125-1.586.23-.55.629-.879 1.223-.961.28-.04.57-.059.898-.094.195-.918.399-1.867.59-2.761-.645-.336-1.309-.625-1.91-1.012-1.477-.942-2.38-2.324-2.844-3.988-.148-.536-.195-1.11-.2-1.665-.015-4.699-.007-9.394-.007-14.093V4.89c-.094-.004-.184-.016-.27-.016-1.25 0-2.5-.016-3.75.008-.617.012-1.28-.676-1.308-1.313-.047-1.015.7-1.484 1.457-1.574a23 23 0 0 0 1.621-.258c.086-.015.18-.144.215-.242C7.605.765 8.105.3 8.867.085c1.238-.023 2.469-.023 3.73-.023.419.207.833.386 1.196.632.5.332.766.848.887 1.426.062.285.066.59.066.887q.005 6.34.004 12.68v.359c.105.008.195.015.285.015 2.914 0 5.828.004 8.742-.007a.67.67 0 0 0 .426-.176c.668-.637 1.402-1.16 2.332-1.324a8 8 0 0 1 1.063-.114c.27-.007.46.2.46.47.008 1.433.06 2.874-.015 4.308-.047 1.023-.375 2.011-.809 2.949-.953 2.05-2.554 3.344-4.73 3.863-.54.13-.711.29-.777.805-.086.652-.282 1.297-.43 1.937.293.047.57.059.828.141.836.262 1.102.797 1.184 1.598.027.289 0 .586.003.875.008.265-.097.472-.308.652-3.715.023-7.422.023-11.164.023m4.52-5.347c.027-.168.058-.332.09-.512-.356-.023-.673-.047-1.012-.07-.043.215-.079.418-.133.664-.149.68-.297 1.363-.453 2.07.328 0 .597.012.867-.008.074-.004.191-.09.207-.156.144-.648.273-1.3.433-1.988m3.203.082c-.144.683-.289 1.363-.437 2.058h1.043c.148-.707.293-1.406.457-2.14.031-.168.066-.332.102-.516H19.69c-.039.188-.074.367-.128.598m4.867-4.89c-.137.007-.27.027-.407.027-2.882 0-5.765-.008-8.652.003-.734.004-1.426-.117-2.074-.554-1.715-1.278-1.633-3.711.176-4.86.191-.125.191-.265.191-.445V3.645c0-.282.008-.563-.004-.844-.023-.797-.426-1.446-1.125-1.574-.672-.125-1.37-.094-2.078-.133v.265c0 5.926-.004 11.852.004 17.778 0 .445.039.898.133 1.332.62 2.781 2.937 4.64 5.789 4.656 1.488.008 2.98.023 4.469-.008.578-.015 1.175-.074 1.722-.246 2.43-.754 3.758-2.516 4.219-4.937.191-1 .152-2.047.2-3.075.023-.422.003-.843.003-1.28-.137.03-.238.046-.336.073a3.2 3.2 0 0 0-1.625 1c-.324.371-.687.535-1.176.48-.254-.03-.511-.007-.742-.007.238.395.535.746.692 1.148.367.95.68 1.918.996 2.887.12.36.02.543-.375.746m-5.461-3.715h3.57c-.512-.652-1.219-1.046-1.973-1.054a296 296 0 0 0-5.59 0c-.757.008-1.335.375-1.664 1.066-.605 1.29.32 2.66 1.801 2.664 2.746.004 5.492 0 8.242 0 .067 0 .133-.008.227-.015l-.535-1.61h-5.645v-1.05zm2.187 12.804h1.032c0-.203.007-.367 0-.531-.02-.32-.215-.527-.543-.527a512 512 0 0 0-4.243 0c-.273 0-.468.148-.515.41-.035.207-.004.425-.004.648zM8.336 2.063c-.063.511-.16.609-.668.69l-2.184.368c-.21.035-.363.137-.347.363.011.227.183.309.39.317.075.004.145 0 .22 0h3.616V1.14c-.57.058-.87.32-1.027.922M13.594 31h2.187c.02-.367.043-.703.063-1.062-.91 0-1.836-.008-2.758.007-.254 0-.43.164-.465.422-.027.203-.023.406-.031.633zm4.59-2.922c.117-.601.234-1.203.355-1.816h-.96c-.184.867-.372 1.73-.563 2.633.175-.032.324-.07.472-.079.532-.035.532-.03.637-.546.012-.051.023-.098.059-.192m0 0"/><path style="stroke:none;fill-rule:nonzero;fill:#e0e0de;fill-opacity:1" d="M24.484 21.902c.34-.199.442-.382.32-.742-.316-.969-.628-1.937-.995-2.887-.157-.402-.454-.753-.692-1.148.23 0 .488-.023.742.008.489.055.852-.11 1.176-.48.434-.493.98-.837 1.625-1 .098-.028.2-.044.336-.075 0 .438.02.86-.004 1.281-.047 1.028-.008 2.075-.199 3.075-.461 2.421-1.79 4.183-4.219 4.937-.547.172-1.144.23-1.722.246-1.489.031-2.98.016-4.47.008-2.85-.016-5.167-1.875-5.788-4.656a6.3 6.3 0 0 1-.133-1.332c-.008-5.926-.004-11.852-.004-17.778v-.265c.707.039 1.406.008 2.078.133.7.128 1.102.777 1.125 1.574.012.281.004.562.004.844v12.433c0 .18 0 .32-.191.445-1.809 1.149-1.891 3.582-.164 4.903.363 1.015 1.254 1.562 2.308 1.57 2.953.016 5.906.004 8.86.004.101 0 .203-.008.382-.02-.132-.386-.254-.734-.375-1.078M12.336 3.266l.25-.024V2.215h-1.05v1.05zm0 0"/><path style="stroke:none;fill-rule:nonzero;fill:#eee;fill-opacity:1" d="M18.938 18.191h-1.536v1.051h5.645l.535 1.61c-.094.007-.16.015-.227.015-2.75 0-5.496.004-8.242 0-1.48-.004-2.406-1.375-1.8-2.664.328-.691.906-1.058 1.664-1.066a296 296 0 0 1 5.59 0c.753.008 1.46.402 1.972 1.054zm0 0"/><path style="stroke:none;fill-rule:nonzero;fill:#dbdbd9;fill-opacity:1" d="M24.457 21.902c.148.344.27.692.402 1.078-.18.012-.28.02-.382.02-2.954 0-5.907.012-8.86-.004-1.055-.008-1.945-.555-2.297-1.555.625.38 1.317.5 2.051.497 2.887-.012 5.77-.004 8.652-.004.137 0 .27-.02.434-.032m0 0"/><path style="stroke:none;fill-rule:nonzero;fill:#fbba3d;fill-opacity:1" d="M21.125 30.996h-4.242c0-.223-.031-.441.004-.648.047-.262.242-.41.515-.41 1.414-.004 2.828-.008 4.243 0 .328 0 .523.207.543.527.007.164 0 .328 0 .531zm0 0"/><path style="stroke:none;fill-rule:nonzero;fill:#f4a000;fill-opacity:1" d="M8.344 2.04c.148-.58.449-.84 1.02-.9V3.8H5.746c-.075 0-.145.005-.22 0-.207-.007-.379-.09-.39-.316-.016-.226.136-.328.347-.363l2.184-.367c.508-.082.605-.18.676-.715m0 0"/><path style="stroke:none;fill-rule:nonzero;fill:#f7a200;fill-opacity:1" d="M13.563 31h-.973c.008-.227.004-.43.031-.633.035-.258.211-.422.465-.422.922-.015 1.848-.008 2.758-.008-.02.36-.043.696-.063 1.063zm0 0"/><path style="stroke:none;fill-rule:nonzero;fill:#fff;fill-opacity:1" d="M18.172 28.102c-.024.07-.035.117-.047.168-.105.515-.105.511-.637.546-.148.008-.297.047-.472.079.191-.903.379-1.766.562-2.633h.961c-.121.613-.238 1.215-.367 1.84m0 0"/><path style="stroke:none;fill-rule:nonzero;fill:#f8b73c;fill-opacity:1" d="M20.61 26.754c-.15.695-.294 1.394-.442 2.101h-1.043c.148-.695.293-1.375.477-2.082.359-.023.683-.023 1.007-.02m0 0"/><path style="stroke:none;fill-rule:nonzero;fill:#f5a100;fill-opacity:1" d="M16.332 26.754c-.133.648-.262 1.3-.406 1.95-.016.066-.133.151-.207.155-.27.02-.54.008-.867.008.156-.707.304-1.39.488-2.094.355-.023.672-.02.992-.02m0 0"/><path style="stroke:none;fill-rule:nonzero;fill:#ef9619;fill-opacity:1" d="M16.344 26.734c-.332.02-.649.016-.996.016.011-.2.047-.402.09-.617.34.023.656.047 1.011.07-.031.18-.062.344-.105.531m0 0"/><path style="stroke:none;fill-rule:nonzero;fill:#f2a003;fill-opacity:1" d="M20.617 26.734c-.332.016-.656.016-1.008.016.008-.184.043-.363.082-.55h1.036c-.036.183-.07.347-.11.534m0 0"/><path style="stroke:none;fill-rule:nonzero;fill:#0a0807;fill-opacity:1" d="M12.305 3.266h-.77V2.215h1.05v1.027a7 7 0 0 1-.28.024m0 0"/></svg>